<?xml version="1.0" encoding="utf-8"?>
<!-- Generator: Adobe Illustrator 26.0.1, SVG Export Plug-In . SVG Version: 6.00 Build 0)  -->
<svg version="1.1" id="Ebene_1" xmlns="http://www.w3.org/2000/svg" xmlns:xlink="http://www.w3.org/1999/xlink" x="0px" y="0px"
	 viewBox="0 0 841.9 368.5" style="enable-background:new 0 0 841.9 368.5;" xml:space="preserve">
<style type="text/css">
	.st0{fill:#008877;}
</style>
<g>
	<path d="M307.7,128.4c0,7.7-0.8,11.4-3,15c-3.3,5.3-9.1,8.1-16.5,8.1c-8.4,0-14.8-3.7-17.7-10.4c-1.3-2.9-2-7.4-2-13.7V99.9h7.2
		v26.5c0,7.1,0.5,10.1,1.8,12.8c2,3.9,6,6.2,10.9,6.2c5.4,0,9.2-2.7,11-7.7c0.8-2.5,1.1-4.6,1.1-10.9V99.9h7.2V128.4z"/>
	<path d="M326.4,119.2c2.9-4.3,7.2-6.5,12.8-6.5c6.5,0,11.1,3.3,12.8,9c0.8,2.4,1,5.4,1,11.5v17.3h-6.9v-16.7c0-5.8-0.1-7.3-0.6-9.2
		c-1.1-3.9-3.9-6.1-7.8-6.1c-4.6,0-8.4,3-9.8,7.7c-0.7,2.4-0.8,4-0.8,10.7v13.6h-6.9v-18.4c-0.1-7.9-0.2-14.1-0.5-18.8h6.5
		L326.4,119.2z"/>
	<path d="M370.8,104.5h-7.5v-7.6h7.5V104.5z M370.7,150.5h-6.9v-37.1h6.9V150.5z"/>
	<path d="M398.7,150.5h-7.9l-13.7-37.1h7.4l7.6,21.4c2.4,7.3,2.5,7.5,2.7,9.3c0.2-1.4,0.4-2.1,0.7-3.1l0.9-2.8l8.7-24.8h6.8
		L398.7,150.5z"/>
	<path d="M422.4,133.7c0.9,7.4,5.6,11.9,12.5,11.9c4,0,7.7-1.1,11.5-3.5v6.6c-4.2,1.9-7.7,2.7-11.9,2.7c-11.6,0-19-7.7-19-19.9
		c0-11.5,7-19.2,17.5-19.2c10.3,0,16.2,7.4,16.2,20.1c0,0.2,0,0.7-0.1,1.2H422.4z M442.3,128.3c-0.5-3.3-0.9-4.8-1.9-6.4
		c-1.7-2.6-4.5-4.1-7.6-4.1c-5.5,0-9.4,4.1-10.3,10.5H442.3z"/>
	<path d="M463.9,113.4l0.4,6.6c2.1-4.6,5.8-7.1,10.6-7.1c1.4,0,2.1,0.1,3.7,0.5v6.3c-1.4-0.5-2.1-0.7-3.3-0.7
		c-4.5,0-8.1,2.9-9.6,7.7c-0.7,2-0.8,3.6-0.8,9.2v14.6H458v-22.6c0-2.7-0.2-7.6-0.5-14.5H463.9z"/>
	<path d="M504.9,120.1c-2.6-1.3-4.9-1.9-7.5-1.9c-3.8,0-6.2,1.8-6.2,4.6c0,2.1,1.5,3.7,5.2,5.4l2.8,1.4c6.1,2.9,8.4,5.7,8.4,10.3
		c0,6.8-5.4,11.3-13.5,11.3c-3.6,0-6.4-0.6-9.6-2.1v-6.2c3.5,1.7,6.1,2.4,8.7,2.4c4.2,0,7.1-2,7.1-4.9c0-1.4-0.7-2.7-1.8-3.5
		c-0.8-0.6-0.8-0.6-3.1-1.7l-2.9-1.4c-3.4-1.8-4.4-2.4-5.8-3.6c-1.7-1.7-2.7-4-2.7-6.7c0-6.5,5.2-10.8,12.9-10.8
		c2.9,0,5.5,0.5,8.7,1.5L504.9,120.1z"/>
	<path d="M522.9,104.5h-7.5v-7.6h7.5V104.5z M522.8,150.5h-6.9v-37.1h6.9V150.5z"/>
	<path d="M544,113.5h9.8v5.4H544v14.6c0,3.9,0.1,5.8,0.4,7.3c0.5,2.7,2.7,4.3,5.7,4.3c1.4,0,2.7-0.3,4.5-1.1v5.9
		c-2.5,0.8-4.4,1.1-6.4,1.1c-4.5,0-8-1.7-9.6-4.9c-1.1-2-1.4-4.7-1.4-10.6v-16.6h-8.6v-5.4h8.6V105l6.9-2.4V113.5z"/>
	<path d="M564.7,116.1c4.1-2.4,7.9-3.4,12.5-3.4c6.5,0,11.2,2.5,13.3,6.8c1.1,2.4,1.5,5.1,1.5,10.6v7.7c0,5.8,0.2,9.7,0.4,12.6H586
		c-0.1-1.4-0.1-2.1-0.1-3c0-0.8,0-1.1,0.1-3.4c-2.8,4.7-6.8,6.9-12.5,6.9c-7.8,0-12.9-4.4-12.9-11.2c0-7.8,7-12.2,19.4-12.2
		c1.4,0,2.8,0.1,5.2,0.2c-0.1-6.4-3-9.3-9.3-9.3c-4,0-7.1,1.1-10.9,3.6L564.7,116.1z M581.7,132.7c-9.1,0-13.7,2.4-13.7,7.1
		c0,3.4,3,5.8,7.1,5.8c4.1,0,7.6-2.1,9.2-5.4c0.8-1.7,1.1-3.5,1.1-7.2C584.1,132.8,583.2,132.7,581.7,132.7z M575,105.9h-6.6v-7.4
		h6.6V105.9z M588.7,105.9h-6.6v-7.4h6.6V105.9z"/>
	<path d="M613,113.5h9.8v5.4H613v14.6c0,3.9,0.1,5.8,0.4,7.3c0.5,2.7,2.7,4.3,5.7,4.3c1.4,0,2.7-0.3,4.5-1.1v5.9
		c-2.5,0.8-4.4,1.1-6.4,1.1c-4.5,0-8-1.7-9.6-4.9c-1.1-2-1.4-4.7-1.4-10.6v-16.6h-8.6v-5.4h8.6V105l6.9-2.4V113.5z"/>
	<path d="M650.1,120.1c-2.6-1.3-4.9-1.9-7.5-1.9c-3.8,0-6.2,1.8-6.2,4.6c0,2.1,1.5,3.7,5.2,5.4l2.8,1.4c6.1,2.9,8.4,5.7,8.4,10.3
		c0,6.8-5.4,11.3-13.5,11.3c-3.6,0-6.4-0.6-9.6-2.1v-6.2c3.5,1.7,6.1,2.4,8.7,2.4c4.2,0,7.1-2,7.1-4.9c0-1.4-0.7-2.7-1.8-3.5
		c-0.8-0.6-0.8-0.6-3.1-1.7l-2.9-1.4c-3.4-1.8-4.4-2.4-5.8-3.6c-1.7-1.7-2.7-4-2.7-6.7c0-6.5,5.2-10.8,12.9-10.8
		c2.9,0,5.5,0.5,8.7,1.5L650.1,120.1z"/>
	<path d="M674.9,134.6h-19.1v-5.7h19.1V134.6z"/>
	<path d="M732.6,136.8c0,4.2,0.1,7.1,0.5,13.7h-6.3l-0.4-5.8c-3,4.2-7.2,6.3-12.5,6.3c-5.5,0-9.9-2.4-11.9-6.7
		c-1.2-2.5-1.8-6.2-1.8-11.3v-19.7h6.9v17.2c0,5.5,0.2,8,1,10c1.2,3.3,3.8,5,7.2,5c3.8,0,7.1-2.2,8.9-5.8c1.4-2.7,1.5-4,1.5-10
		v-16.3h6.9V136.8z"/>
	<path d="M751.1,119.2c2.9-4.3,7.2-6.5,12.8-6.5c6.5,0,11.1,3.3,12.8,9c0.8,2.4,1,5.4,1,11.5v17.3h-6.9v-16.7c0-5.8-0.1-7.3-0.6-9.2
		c-1.1-3.9-3.9-6.1-7.8-6.1c-4.6,0-8.4,3-9.8,7.7c-0.7,2.4-0.8,4-0.8,10.7v13.6h-6.9v-18.4c-0.1-7.9-0.2-14.1-0.5-18.8h6.5
		L751.1,119.2z"/>
	<path d="M821.7,133.2c0,5.6,0.2,10.6,0.5,17.3h-6.7v-6.2c-3.3,4.7-7.1,6.8-12.8,6.8c-9.9,0-16.3-7.4-16.3-19
		c0-11.5,6.6-19.4,16.3-19.4c5.2,0,9.3,2.1,12.3,6.5l-0.1-1.1l-0.1-2.2c-0.1-0.7-0.1-1.3-0.1-1.8V95.8h6.9V133.2z M793.7,132.1
		c0,7.7,4.3,13.1,10.4,13.1c6.2,0,10.8-5.6,10.8-13.2c0-7.5-4.6-13.4-10.5-13.4C798.1,118.5,793.7,124.1,793.7,132.1z"/>
	<path d="M275.8,227.2h21.4v6.2h-28.6v-50.7h7.2V227.2z"/>
	<path d="M307.2,198.9c4.1-2.4,7.9-3.4,12.5-3.4c6.5,0,11.2,2.5,13.3,6.8c1.1,2.4,1.5,5.1,1.5,10.6v7.7c0,5.8,0.2,9.7,0.4,12.6h-6.3
		c-0.1-1.4-0.1-2.1-0.1-3c0-0.8,0-1.1,0.1-3.4c-2.8,4.7-6.8,6.9-12.5,6.9c-7.8,0-12.9-4.4-12.9-11.2c0-7.8,7-12.2,19.4-12.2
		c1.4,0,2.8,0.1,5.2,0.2c-0.1-6.4-3-9.3-9.3-9.3c-4,0-7.1,1.1-10.9,3.6L307.2,198.9z M324.2,215.6c-9.1,0-13.7,2.4-13.7,7.1
		c0,3.4,3,5.8,7.1,5.8c4.1,0,7.6-2.1,9.2-5.4c0.8-1.7,1.1-3.5,1.1-7.2C326.7,215.7,325.7,215.6,324.2,215.6z"/>
	<path d="M352.8,202.1c2.9-4.3,7.2-6.5,12.8-6.5c6.5,0,11.1,3.3,12.8,9c0.8,2.4,1,5.4,1,11.5v17.3h-6.9v-16.7c0-5.8-0.1-7.3-0.6-9.2
		c-1.1-3.9-3.9-6.1-7.8-6.1c-4.6,0-8.4,3-9.8,7.7c-0.7,2.4-0.8,4-0.8,10.7v13.6h-6.9V215c-0.1-7.9-0.2-14.1-0.5-18.8h6.5
		L352.8,202.1z"/>
	<path d="M423.4,216c0,5.6,0.2,10.6,0.5,17.3h-6.7v-6.2c-3.3,4.7-7.1,6.8-12.8,6.8c-9.9,0-16.3-7.4-16.3-19
		c0-11.5,6.6-19.4,16.3-19.4c5.2,0,9.3,2.1,12.3,6.5l-0.1-1.1l-0.1-2.2c-0.1-0.7-0.1-1.3-0.1-1.8v-18.2h6.9V216z M395.4,214.9
		c0,7.7,4.3,13.1,10.4,13.1c6.2,0,10.8-5.6,10.8-13.2c0-7.5-4.6-13.4-10.5-13.4C399.8,201.4,395.4,206.9,395.4,214.9z"/>
	<path d="M439.7,216.6c0.9,7.4,5.6,11.9,12.5,11.9c4,0,7.7-1.1,11.5-3.5v6.6c-4.2,1.9-7.7,2.7-11.9,2.7c-11.6,0-19-7.7-19-19.9
		c0-11.5,7-19.2,17.5-19.2c10.3,0,16.2,7.4,16.2,20.1c0,0.2,0,0.7-0.1,1.2H439.7z M459.6,211.2c-0.5-3.3-0.9-4.8-1.9-6.4
		c-1.7-2.6-4.5-4.1-7.6-4.1c-5.5,0-9.4,4.1-10.3,10.5H459.6z"/>
	<path d="M493.7,202.9c-2.6-1.3-4.9-1.9-7.5-1.9c-3.8,0-6.2,1.8-6.2,4.6c0,2.1,1.5,3.7,5.2,5.4l2.8,1.4c6.1,2.9,8.4,5.7,8.4,10.3
		c0,6.8-5.4,11.3-13.5,11.3c-3.6,0-6.4-0.6-9.6-2.1v-6.2c3.5,1.7,6.1,2.4,8.7,2.4c4.2,0,7.1-2,7.1-4.9c0-1.4-0.7-2.7-1.8-3.5
		c-0.8-0.6-0.8-0.6-3.1-1.7l-2.9-1.4c-3.4-1.8-4.4-2.4-5.8-3.6c-1.7-1.7-2.7-4-2.7-6.7c0-6.5,5.2-10.8,12.9-10.8
		c2.9,0,5.5,0.5,8.7,1.5L493.7,202.9z"/>
	<path d="M511.7,198.3c0,1.7,0,1.7-0.1,3c-0.1,0.2-0.1,0.7-0.2,1.3c1.8-4.3,6.9-7.1,12.8-7.1c9.6,0,15.9,7.4,15.9,18.9
		c0,11.8-6.3,19.4-16.1,19.4c-5.7,0-10.4-2.5-12.8-6.9v6.4h-6.6v-54.7h6.9V198.3z M511.9,214.8c0,7.5,4.6,13.2,10.8,13.2
		c6,0,10.3-5.6,10.3-13.3c0-7.8-4.1-13.4-10-13.4C516.5,201.4,511.9,207,511.9,214.8z"/>
	<path d="M556.5,187.3H549v-7.6h7.5V187.3z M556.4,233.4h-6.9v-37.1h6.9V233.4z"/>
	<path d="M574.6,198.3c0,1.7,0,1.7-0.1,3c-0.1,0.2-0.1,0.7-0.2,1.3c1.8-4.3,6.9-7.1,12.8-7.1c9.6,0,15.9,7.4,15.9,18.9
		c0,11.8-6.3,19.4-16.1,19.4c-5.7,0-10.4-2.5-12.8-6.9v6.4h-6.6v-54.7h6.9V198.3z M574.8,214.8c0,7.5,4.6,13.2,10.8,13.2
		c6,0,10.3-5.6,10.3-13.3c0-7.8-4.1-13.4-10-13.4C579.4,201.4,574.8,207,574.8,214.8z"/>
	<path d="M619.3,233.4h-6.9v-54.7h6.9V233.4z"/>
	<path d="M637.6,187.3h-7.5v-7.6h7.5V187.3z M637.4,233.4h-6.9v-37.1h6.9V233.4z"/>
	<path d="M684.5,215.1c0,11.2-8.1,19.2-19.1,19.2c-10.9,0-18.9-8.3-18.9-19.4c0-11.4,8-19.7,18.9-19.7
		C676.6,195.2,684.5,203.4,684.5,215.1z M653.7,214.8c0,8.3,4.9,14,11.8,14c6.8,0,11.7-5.8,11.7-13.7c0-8.5-4.9-14.4-11.7-14.4
		C658.6,200.7,653.7,206.6,653.7,214.8z"/>
	<path d="M702.8,196.4h9.8v5.4h-9.8v14.6c0,3.9,0.1,5.8,0.4,7.3c0.5,2.7,2.7,4.3,5.7,4.3c1.4,0,2.7-0.3,4.5-1.1v5.9
		c-2.5,0.8-4.4,1.1-6.4,1.1c-4.5,0-8-1.7-9.6-4.9c-1.1-2-1.4-4.7-1.4-10.6v-16.6h-8.6v-5.4h8.6v-8.5l6.9-2.4V196.4z"/>
	<path d="M728.4,196.4c0,2.6-0.1,4.6-0.2,5.8c2.6-4.4,6.8-6.7,12.4-6.7c6.1,0,10.6,2.9,12.5,8c1,2.6,1.4,5.5,1.4,10.3v19.5h-6.9
		v-16.1c0-5.6-0.2-7.8-0.7-9.7c-1.1-4-3.8-6.2-7.7-6.2c-4.6,0-8.4,3-9.9,7.6c-0.7,2.1-0.8,4.1-0.8,9.6v14.7h-6.9v-54.7h6.9V196.4z"
		/>
	<path d="M770,216.6c0.9,7.4,5.6,11.9,12.5,11.9c4,0,7.7-1.1,11.5-3.5v6.6c-4.2,1.9-7.7,2.7-11.9,2.7c-11.6,0-19-7.7-19-19.9
		c0-11.5,7-19.2,17.5-19.2c10.3,0,16.2,7.4,16.2,20.1c0,0.2,0,0.7-0.1,1.2H770z M789.8,211.2c-0.5-3.3-0.9-4.8-1.9-6.4
		c-1.7-2.6-4.5-4.1-7.6-4.1c-5.5,0-9.4,4.1-10.3,10.5H789.8z"/>
	<path d="M812.4,204.9l-0.2,2.1l0.1,1.7c-0.2,2.2-0.2,2.2-0.2,3c0.6-0.8,0.8-1,1.4-1.6c0.2-0.2,0.5-0.5,1-1.1l0.8-0.8l12.1-12.1h9.3
		l-17.3,16.4l19.7,20.7h-9.7l-12.6-13.7c-0.4-0.5-1.7-2.1-2.7-3.2c-0.5-0.7-0.8-1.1-1-1.3c-0.1-0.2-0.5-0.5-0.9-1
		c0.1,0.6,0.2,2.4,0.2,5.6v13.5h-6.9v-54.7h6.9V204.9z"/>
	<path d="M279,265.5c6.8,0,10.1,0.3,13.5,1.2c10.9,2.9,18.2,12.7,18.2,24.3c0,11.1-6.5,20.1-17,23.5c-3.6,1.2-7.6,1.7-13.6,1.7
		h-11.6v-50.7H279z M275.8,310h3.8c6.6,0,9.5-0.4,12.8-1.8c6.7-2.8,10.7-9.4,10.7-17.4c0-8.1-4.9-15.3-12-17.8
		c-2.7-0.9-5.9-1.3-11.4-1.3h-3.9V310z"/>
	<path d="M321.5,281.8c4.1-2.4,7.9-3.4,12.5-3.4c6.5,0,11.2,2.5,13.3,6.8c1.1,2.4,1.5,5.1,1.5,10.6v7.7c0,5.8,0.2,9.7,0.4,12.6h-6.3
		c-0.1-1.4-0.1-2.1-0.1-3c0-0.8,0-1.1,0.1-3.4c-2.8,4.7-6.8,6.9-12.5,6.9c-7.8,0-12.9-4.4-12.9-11.2c0-7.8,7-12.2,19.4-12.2
		c1.4,0,2.8,0.1,5.2,0.2c-0.1-6.4-3-9.3-9.3-9.3c-4,0-7.1,1.1-10.9,3.6L321.5,281.8z M338.5,298.4c-9.1,0-13.7,2.4-13.7,7.1
		c0,3.4,3,5.8,7.1,5.8c4.1,0,7.6-2.1,9.2-5.4c0.8-1.7,1.1-3.5,1.1-7.2C340.9,298.5,339.9,298.4,338.5,298.4z"/>
	<path d="M366.7,279.1l0.4,6.6c2.1-4.6,5.8-7.1,10.6-7.1c1.4,0,2.1,0.1,3.7,0.5v6.3c-1.4-0.5-2.1-0.7-3.3-0.7
		c-4.5,0-8.1,2.9-9.6,7.7c-0.7,2-0.8,3.6-0.8,9.2v14.6h-6.9v-22.6c0-2.7-0.2-7.6-0.5-14.5H366.7z"/>
	<path d="M395,285.1c2-4.2,6.4-6.7,11.7-6.7c5.5,0,9.3,2.7,10.9,7.4c2.4-4.9,6.7-7.4,12.2-7.4c5.6,0,9.8,2.9,11.5,8
		c0.7,2.2,1,5,1,10.3v19.5h-6.9V298c0-4.9-0.2-7-0.6-8.6c-0.9-3.3-3.1-5.2-6.4-5.2c-4,0-7.5,3.1-8.7,7.7c-0.6,2.1-0.7,3.4-0.7,8.6
		v15.7h-6.9v-19.1c0-4.6-0.2-6.3-0.5-7.8c-1-3.3-3.2-5.1-6.2-5.1c-3.8,0-7.2,2.7-8.7,6.7c-0.9,2.4-1.1,3.6-1.1,8.9v16.4h-6.9v-21
		c0-5.8-0.2-10.1-0.5-16.2h6.4L395,285.1z"/>
	<path d="M471.5,285.7c-2.6-1.3-4.9-1.9-7.5-1.9c-3.8,0-6.2,1.8-6.2,4.6c0,2.1,1.5,3.7,5.2,5.4l2.8,1.4c6.1,2.9,8.4,5.7,8.4,10.3
		c0,6.8-5.4,11.3-13.5,11.3c-3.6,0-6.4-0.6-9.6-2.1v-6.2c3.5,1.7,6.1,2.4,8.7,2.4c4.2,0,7.1-2,7.1-4.9c0-1.4-0.7-2.7-1.8-3.5
		c-0.8-0.6-0.8-0.6-3.1-1.7l-2.9-1.4c-3.4-1.8-4.4-2.4-5.8-3.6c-1.7-1.7-2.7-4-2.7-6.7c0-6.5,5.2-10.8,12.9-10.8
		c2.9,0,5.5,0.5,8.7,1.5L471.5,285.7z"/>
	<path d="M493.3,279.2h9.8v5.4h-9.8v14.6c0,3.9,0.1,5.8,0.4,7.3c0.5,2.7,2.7,4.3,5.7,4.3c1.4,0,2.7-0.3,4.5-1.1v5.9
		c-2.5,0.8-4.4,1.1-6.4,1.1c-4.5,0-8-1.7-9.6-4.9c-1.1-2-1.4-4.7-1.4-10.6v-16.6h-8.6v-5.4h8.6v-8.5l6.9-2.4V279.2z"/>
	<path d="M514,281.8c4.1-2.4,7.9-3.4,12.5-3.4c6.5,0,11.2,2.5,13.3,6.8c1.1,2.4,1.5,5.1,1.5,10.6v7.7c0,5.8,0.2,9.7,0.4,12.6h-6.3
		c-0.1-1.4-0.1-2.1-0.1-3c0-0.8,0-1.1,0.1-3.4c-2.8,4.7-6.8,6.9-12.5,6.9c-7.8,0-12.9-4.4-12.9-11.2c0-7.8,7-12.2,19.4-12.2
		c1.4,0,2.8,0.1,5.2,0.2c-0.1-6.4-3-9.3-9.3-9.3c-4,0-7.1,1.1-10.9,3.6L514,281.8z M531,298.4c-9.1,0-13.7,2.4-13.7,7.1
		c0,3.4,3,5.8,7.1,5.8c4.1,0,7.6-2.1,9.2-5.4c0.8-1.7,1.1-3.5,1.1-7.2C533.4,298.5,532.4,298.4,531,298.4z"/>
	<path d="M585.6,298.9c0,5.6,0.2,10.6,0.5,17.3h-6.7V310c-3.3,4.7-7.1,6.8-12.8,6.8c-9.9,0-16.3-7.4-16.3-19
		c0-11.5,6.6-19.4,16.3-19.4c5.2,0,9.3,2.1,12.3,6.5l-0.1-1.1l-0.1-2.2c-0.1-0.7-0.1-1.3-0.1-1.8v-18.2h6.9V298.9z M557.6,297.7
		c0,7.7,4.3,13.1,10.4,13.1c6.2,0,10.8-5.6,10.8-13.2c0-7.5-4.6-13.4-10.5-13.4C562,284.2,557.6,289.8,557.6,297.7z"/>
	<path d="M607.5,279.2h9.8v5.4h-9.8v14.6c0,3.9,0.1,5.8,0.4,7.3c0.5,2.7,2.7,4.3,5.7,4.3c1.4,0,2.7-0.3,4.5-1.1v5.9
		c-2.5,0.8-4.4,1.1-6.4,1.1c-4.5,0-8-1.7-9.6-4.9c-1.1-2-1.4-4.7-1.4-10.6v-16.6H592v-5.4h8.6v-8.5l6.9-2.4V279.2z"/>
</g>
<g>
	<path class="st0" d="M196.1,100.2c0-3.3-0.2-6.6-0.5-9.9c-0.4-4.1-1.1-8-2-11.9c-0.4-1.6-0.8-3.1-1.2-4.6c-0.9-3.1-1.9-6-3-9
		c-0.6-1.5-1.2-2.9-1.8-4.3c-1-2.1-2-4.2-3.1-6.3c-0.7-1.4-1.5-2.7-2.3-4c-0.4-0.7-0.8-1.3-1.2-2C163.7,21.3,133.6,3.5,99.5,3.5v0
		v24.2v0c40,0,72.5,32.5,72.5,72.5c0,4.1-0.4,8.1-1,12.1c-1.1,6.4-3,12.5-5.6,18.2c0,0,0,0.1-0.1,0.1c-0.4,0.9-0.8,1.7-1.3,2.6
		c-0.1,0.1-0.1,0.2-0.2,0.3c-0.4,0.8-0.9,1.6-1.3,2.4c-0.1,0.1-0.2,0.3-0.2,0.4c-0.5,0.8-0.9,1.6-1.4,2.3c-0.1,0.1-0.2,0.3-0.2,0.4
		c-0.5,0.8-1,1.6-1.5,2.3c-0.1,0.1-0.1,0.2-0.2,0.2c-2.8,4-6.1,7.8-9.6,11.2c-0.2,0.2-0.4,0.4-0.6,0.6c-0.5,0.5-1.1,1-1.6,1.5
		c-0.3,0.2-0.6,0.5-0.8,0.7c-0.5,0.4-1.1,0.9-1.6,1.3c-0.3,0.3-0.7,0.5-1,0.8c-0.5,0.4-1,0.8-1.6,1.2c-0.4,0.3-0.7,0.5-1.1,0.8
		c-0.5,0.4-1,0.7-1.6,1.1c-0.4,0.3-0.8,0.5-1.2,0.8c-0.5,0.3-1,0.7-1.6,1c-0.4,0.3-0.9,0.5-1.3,0.8c-0.5,0.3-1,0.6-1.5,0.9
		c-0.5,0.3-1,0.5-1.6,0.8c-0.6,0.3-1.2,0.6-1.8,0.9c-0.8,0.4-1.7,0.8-2.6,1.2c-0.4,0.2-0.9,0.3-1.3,0.5c-0.6,0.2-1.2,0.5-1.9,0.7
		c-0.5,0.2-0.9,0.3-1.4,0.5c-0.6,0.2-1.2,0.4-1.8,0.6c-0.5,0.2-0.9,0.3-1.4,0.4c-0.6,0.2-1.2,0.4-1.9,0.5c-0.5,0.1-1,0.2-1.4,0.4
		c-0.6,0.2-1.3,0.3-1.9,0.4c-0.5,0.1-1,0.2-1.5,0.3c-0.7,0.1-1.3,0.2-2,0.4c-0.5,0.1-1,0.2-1.4,0.2c-0.7,0.1-1.4,0.2-2.1,0.3
		c-0.5,0.1-0.9,0.1-1.4,0.2c-0.8,0.1-1.6,0.1-2.4,0.2c-0.4,0-0.8,0.1-1.1,0.1c-1.2,0.1-2.4,0.1-3.5,0.1v0v24.2v0
		c52.2,0,94.9-41.7,96.6-93.5c0,0,0-0.1,0-0.1C196.1,102.2,196.1,101.2,196.1,100.2C196.1,100.2,196.1,100.2,196.1,100.2
		L196.1,100.2L196.1,100.2z"/>
	<path class="st0" d="M100.2,148.4c23.1-0.4,42.3-17,46.6-38.9c0.1-0.3,0.1-0.5,0.1-0.8c0.1-0.7,0.2-1.3,0.3-2
		c0-0.3,0.1-0.6,0.1-0.9c0.1-0.7,0.1-1.3,0.2-2c0-0.3,0-0.6,0.1-0.9c0.1-0.9,0.1-1.9,0.1-2.8c0,0,0,0,0,0v0l0,0
		c0-4.2-0.5-8.2-1.5-12.1c-0.2-0.8-0.4-1.5-0.7-2.3c-0.5-1.5-1-3-1.6-4.4c-0.9-2.2-2-4.3-3.2-6.2c-0.8-1.3-1.7-2.6-2.6-3.9
		c-1.4-1.9-2.9-3.6-4.6-5.3c-8.7-8.7-20.8-14.2-34.1-14.2v0V76c0.3,0,0.5,0,0.7,0c0.4,0,0.7,0,1.1,0c12.5,1,22.3,11.4,22.3,24.1
		c0,4.4-1.2,8.5-3.3,12.1c0,0,0,0,0,0c-2.9,4.9-7.4,8.8-12.9,10.7c0,0-0.1,0-0.1,0c-0.4,0.1-0.9,0.3-1.3,0.4c-0.1,0-0.2,0-0.2,0.1
		c-0.9,0.3-1.9,0.5-2.9,0.6c-0.1,0-0.3,0-0.4,0c-0.4,0-0.7,0.1-1.1,0.1c-0.1,0-0.3,0-0.4,0c-0.5,0-1,0.1-1.5,0.1c0,0,0,0,0,0v0v24.2
		v0C99.7,148.5,100,148.4,100.2,148.4C100.2,148.4,100.2,148.4,100.2,148.4z"/>
	<path class="st0" d="M171.9,196.7L171.9,196.7v71.8c0,1.2,0,2.4-0.1,3.5c0,0.4-0.1,0.8-0.1,1.2c-0.1,0.8-0.1,1.6-0.2,2.3
		c0,0.5-0.1,0.9-0.2,1.4c-0.1,0.7-0.2,1.4-0.3,2.1c-0.1,0.5-0.2,1-0.2,1.4c-0.1,0.7-0.2,1.3-0.4,2c-0.1,0.5-0.2,1-0.3,1.5
		c-0.1,0.6-0.3,1.3-0.4,1.9c-0.1,0.5-0.2,1-0.4,1.5c-0.2,0.6-0.3,1.2-0.5,1.8c-0.1,0.5-0.3,1-0.4,1.4c-0.2,0.6-0.4,1.2-0.6,1.8
		c-0.2,0.5-0.3,0.9-0.5,1.4c-0.2,0.6-0.5,1.2-0.7,1.9c-0.2,0.4-0.3,0.9-0.5,1.3c-0.4,0.9-0.8,1.7-1.2,2.6c-0.3,0.6-0.6,1.2-0.9,1.8
		c-0.3,0.5-0.5,1-0.8,1.6c-0.3,0.5-0.6,1-0.9,1.5c-0.3,0.4-0.5,0.9-0.8,1.3c-0.3,0.5-0.6,1-1,1.6c-0.3,0.4-0.5,0.8-0.8,1.2
		c-0.3,0.5-0.7,1-1.1,1.6c-0.3,0.4-0.5,0.7-0.8,1.1c-0.4,0.5-0.8,1.1-1.2,1.6c-0.3,0.3-0.5,0.7-0.8,1c-0.4,0.5-0.9,1.1-1.3,1.6
		c-0.2,0.3-0.5,0.6-0.7,0.8c-0.5,0.6-1,1.1-1.5,1.6c-0.2,0.2-0.4,0.4-0.6,0.6c-0.6,0.6-1.1,1.2-1.7,1.8c0,0,0,0,0,0
		c-2.9,2.9-6.1,5.5-9.4,7.8c-0.1,0.1-0.2,0.1-0.2,0.2c-0.8,0.5-1.5,1-2.3,1.5c-0.1,0.1-0.3,0.2-0.4,0.2c-0.8,0.5-1.5,0.9-2.3,1.4
		c-0.1,0.1-0.3,0.2-0.4,0.2c-0.8,0.5-1.6,0.9-2.4,1.3c-0.1,0.1-0.2,0.1-0.3,0.2c-0.9,0.4-1.7,0.9-2.6,1.3c0,0-0.1,0-0.1,0.1
		c-5.7,2.6-11.8,4.5-18.2,5.6c-3.9,0.7-8,1-12.1,1C59.5,341,27,308.5,27,268.6v0c0,0,0,0,0,0c0,0,0,0,0,0V3.7v0H2.8v267.6h0v0h0
		C3,277,3.7,282.6,4.8,288c0.3,1.5,0.7,3.1,1.1,4.6c2.3,9.1,6,17.7,10.7,25.5c0.4,0.7,0.8,1.3,1.2,1.9c0.8,1.3,1.7,2.6,2.5,3.8
		c1.7,2.5,3.6,4.9,5.6,7.2c1.5,1.7,3,3.4,4.6,5c2.1,2.2,4.4,4.2,6.7,6.2c1.2,1,2.3,1.9,3.6,2.9c4.8,3.7,10,7,15.5,9.7
		c0.7,0.3,1.4,0.7,2.1,1c1,0.5,2,0.9,3,1.4c5.2,2.3,10.7,4.1,16.3,5.4c0.3,0.1,0.6,0.1,0.9,0.2c6.8,1.5,13.8,2.3,21,2.3
		c1,0,2,0,3-0.1c0,0,0.1,0,0.1,0c51-1.6,92.2-43,93.5-94.2h0v-2.3v-96.1v0C189.2,181.7,181.1,189.8,171.9,196.7z"/>
	<path class="st0" d="M99.5,244.4c0,0,0.1,0,0.1,0c13.3,0.1,24,10.9,24,24.2h17.7l0,0h6.5v0l0,0c0-5.8-1-11.4-2.9-16.6
		c-1.4-3.7-3.2-7.2-5.3-10.4c-0.9-1.3-1.8-2.5-2.8-3.7s-2-2.3-3.1-3.4c-3.8-3.8-8.3-7-13.2-9.4c-0.7-0.3-1.4-0.7-2.1-1
		c-5.8-2.4-12.1-3.8-18.8-3.8v0L99.5,244.4L99.5,244.4C99.5,244.4,99.5,244.4,99.5,244.4C99.5,244.4,99.5,244.4,99.5,244.4z"/>
	<path class="st0" d="M51.1,270.9L51.1,270.9c0.4,6.8,2.1,13.2,5,19c1.9,3.8,4.2,7.3,7,10.5c8.9,10.1,21.9,16.5,36.3,16.5v0v-6.5
		v-17.7c-13.3,0-24.1-10.8-24.2-24.1v0c0,0,0,0,0,0c0,0,0,0,0,0V3.3v0H51.1v0h0L51.1,270.9L51.1,270.9L51.1,270.9z"/>
</g>
</svg>
