<?xml version="1.0" encoding="UTF-8" standalone="no"?><!DOCTYPE svg PUBLIC "-//W3C//DTD SVG 1.1//EN" "http://www.w3.org/Graphics/SVG/1.1/DTD/svg11.dtd"><svg width="100%" height="100%" viewBox="0 0 128 128" version="1.1" xmlns="http://www.w3.org/2000/svg" xmlns:xlink="http://www.w3.org/1999/xlink" xml:space="preserve" xmlns:serif="http://www.serif.com/" style="fill-rule:evenodd;clip-rule:evenodd;stroke-linejoin:round;stroke-miterlimit:2;"><path d="M14.95,68.266l26.879,0c0.236,2.31 0.866,4.564 1.863,6.661l-16.139,9.722l-15.12,-11.484c-0.041,-0.298 -0.08,-0.597 -0.115,-0.896l-0.051,-0.47l2.683,-3.533Z" style="fill:#e9a614;fill-rule:nonzero;"/><path d="M29.286,85.965l15.357,-9.25c0.351,0.575 0.727,1.134 1.128,1.676c0.379,0.508 0.779,1.001 1.2,1.475c0.223,0.25 0.449,0.497 0.69,0.738l-10.979,10.978l-7.396,-5.617Z" style="fill:#a7853d;fill-rule:nonzero;"/><path d="M81.776,99.049l-12.731,16.762c-0.13,0.019 -0.261,0.037 -0.391,0.054l-20.621,-15.662l6.251,-15.183c0.313,0.129 0.635,0.226 0.952,0.338c0.318,0.113 0.632,0.24 0.954,0.335c1.888,0.563 3.841,0.846 5.795,0.846c2.982,0 5.96,-0.666 8.711,-1.971c0.305,-0.144 0.605,-0.295 0.904,-0.455c0.296,-0.159 0.592,-0.317 0.882,-0.491l9.294,15.427Z" style="fill:#e9a614;fill-rule:nonzero;"/><path d="M36.138,40.369l11.524,11.524c-0.242,0.241 -0.451,0.5 -0.678,0.749c-0.227,0.249 -0.466,0.492 -0.678,0.75c-2.534,3.089 -4.096,6.861 -4.487,10.837c-0.034,0.335 -0.039,0.673 -0.056,1.01c-0.017,0.337 -0.048,0.672 -0.048,1.009l-25.232,0l19.655,-25.879Z" style="fill:#5e5135;fill-rule:nonzero;"/><path d="M55.127,16.663l6.89,5.232l-0.001,24.051c-0.337,0 -0.673,0.017 -1.009,0.035c-2.66,0.137 -5.267,0.799 -7.671,1.946c-0.304,0.145 -0.605,0.295 -0.903,0.455c-0.296,0.159 -0.592,0.317 -0.882,0.492l-9.674,-16.061l12.14,-15.984c0.37,-0.06 0.74,-0.115 1.11,-0.166Z" style="fill:#a7853d;fill-rule:nonzero;"/><path d="M64.035,23.428l15.991,12.145l-11.473,11.473c-1.465,-0.496 -2.981,-0.826 -4.519,-0.984l0.001,-22.634Z" style="fill:#5e5135;fill-rule:nonzero;"/><path d="M106.69,66.246l-19.284,25.39l-11.035,-11.034c0.242,-0.24 0.452,-0.499 0.678,-0.749c0.227,-0.249 0.466,-0.491 0.678,-0.749c2.534,-3.09 4.095,-6.862 4.486,-10.839c0.034,-0.335 0.04,-0.672 0.056,-1.009c0.017,-0.337 0.048,-0.672 0.048,-1.009l0,-0.001l24.373,0Z" style="fill:#a7853d;fill-rule:nonzero;"/><path d="M94.423,46.508l17.209,13.07l0.01,0.074l0.008,0.064l-3.427,4.512l-26.023,-0c-0.157,-1.538 -0.487,-3.054 -0.983,-4.518l13.206,-13.202Z" style="fill:#5e5135;fill-rule:nonzero;"/><path d="M107.228,21.42c-0.656,-0.821 -2.71,-6.252 -3.003,-8.19c-0.226,-1.485 10.454,-10.93 8.274,-10.957c-3.716,-0.045 -7.467,1.242 -10.301,4.077c-4.344,4.342 -5.211,10.834 -2.625,16.047l-30.367,30.368c-5.213,-2.585 -11.705,-1.718 -16.049,2.624c-2.926,2.927 -4.031,6.824 -4.06,10.661c-0.017,2.349 7.465,-7.852 9.057,-8.504c1.116,-0.456 9.344,1.175 9.974,1.766c0.895,0.839 3.279,8.69 3.052,9.592c-0.629,2.5 -10.572,10.64 -7.807,10.279c3.421,-0.445 6.87,-1.448 9.502,-4.079c4.342,-4.342 5.209,-10.834 2.622,-16.049l30.367,-30.366c5.215,2.585 11.706,1.718 16.048,-2.625c3.14,-3.139 4.469,-7.403 3.988,-11.495c-0.261,-2.219 -6.311,6.725 -8.971,8.356c-1.016,0.624 -9.066,-0.711 -9.701,-1.505Z" style="fill:#38362e;fill-rule:nonzero;"/><path d="M49.17,50.548c0.232,-0.188 0.467,-0.369 0.704,-0.545l-0.053,-0.088l-15.34,-25.466c-0.713,0.465 -1.417,0.945 -2.104,1.449c-1.499,1.104 -2.935,2.29 -4.301,3.554l21.013,21.013l0.081,0.083Z" style="fill:#93d500;fill-rule:nonzero;"/><path d="M49.159,81.958l-0.071,0.072l-21.01,21.011c0.108,0.101 0.215,0.203 0.326,0.301c0.195,0.177 0.395,0.354 0.594,0.527c0.103,0.092 0.204,0.183 0.307,0.272c0.238,0.206 0.478,0.407 0.717,0.607l0.194,0.162c0.306,0.252 0.614,0.5 0.926,0.744c0.31,0.242 0.622,0.481 0.936,0.717c1.268,0.947 2.58,1.834 3.931,2.657c0.046,0.03 0.093,0.057 0.14,0.086c0.257,0.155 0.515,0.307 0.774,0.457l0.475,0.271c0.15,0.087 0.299,0.169 0.45,0.253c0.273,0.149 0.547,0.298 0.822,0.443l0.114,0.061c0.764,0.399 1.541,0.771 2.324,1.128l0.746,-1.811l10.565,-25.664l0.039,-0.095c-1.169,-0.623 -2.274,-1.359 -3.299,-2.199Zm25.703,-0.011c-0.231,0.187 -0.466,0.37 -0.704,0.545l0.053,0.088l15.341,25.466c0.713,-0.463 1.413,-0.944 2.099,-1.445c1.5,-1.106 2.937,-2.294 4.306,-3.559l-21.013,-21.012l-0.082,-0.083Z" style="fill:#4d5a31;fill-rule:nonzero;"/><path d="M58.472,58.939c2.802,0.177 5.678,0.728 8.347,1.602c1.249,2.516 2.209,5.282 2.787,8.03c-1.555,2.339 -3.471,4.554 -5.562,6.429c-2.802,-0.177 -5.678,-0.729 -8.347,-1.602c-1.249,-2.516 -2.209,-5.283 -2.787,-8.031c1.555,-2.339 3.471,-4.553 5.562,-6.428Z" style="fill:#38362e;"/></svg>